<?xml version="1.0" encoding="UTF-8"?><svg id="Camada_1" xmlns="http://www.w3.org/2000/svg" viewBox="0 0 226.77 226.77"><defs><style>.cls-1{fill:#fff;}.cls-2{fill:#0f2441;stroke:#1d1d1b;stroke-miterlimit:10;stroke-width:.23px;}</style></defs><rect class="cls-2" x=".44" y=".11" width="226.54" height="226.54"/><path class="cls-1" d="M53.61,112.73c0-4.33,1.12-8.14,3.35-11.42,2.23-3.28,5.31-5.63,9.24-7.06-3.39-1.42-6.01-3.55-7.87-6.4-1.86-2.84-2.79-6.16-2.79-9.95,0-4.26,1.13-7.99,3.4-11.17,2.27-3.18,5.45-5.65,9.54-7.41,4.09-1.76,8.88-2.64,14.36-2.64s10.27.88,14.36,2.64c4.09,1.76,7.27,4.23,9.54,7.41,2.27,3.18,3.4,6.9,3.4,11.17,0,3.72-.93,7.02-2.79,9.9-1.86,2.88-4.48,5.03-7.87,6.45,3.86,1.42,6.92,3.79,9.19,7.11,2.27,3.32,3.4,7.11,3.4,11.37,0,4.67-1.18,8.7-3.55,12.08-2.37,3.38-5.74,6.01-10.1,7.87-4.37,1.86-9.56,2.79-15.58,2.79s-11.22-.93-15.58-2.79-7.73-4.48-10.1-7.87c-2.37-3.38-3.55-7.41-3.55-12.08ZM93,111.26c0-2.81-.95-5.08-2.84-6.8-1.9-1.73-4.33-2.59-7.31-2.59s-5.42.86-7.31,2.59c-1.9,1.73-2.84,3.99-2.84,6.8s.93,5.09,2.79,6.85c1.86,1.76,4.31,2.64,7.36,2.64s5.5-.88,7.36-2.64c1.86-1.76,2.79-4.04,2.79-6.85ZM92.29,79.48c0-2.67-.86-4.8-2.59-6.4-1.73-1.59-4.01-2.39-6.85-2.39s-5.13.8-6.85,2.39c-1.73,1.59-2.59,3.72-2.59,6.4s.86,4.81,2.59,6.4c1.73,1.59,4.01,2.39,6.85,2.39s5.13-.79,6.85-2.39c1.73-1.59,2.59-3.72,2.59-6.4Z"/><path class="cls-1" d="M149.24,118.42h-34.01v-14.31l32.49-45.78h18.78v45.48h8.63v14.62h-8.63v15.43h-17.26v-15.43ZM149.24,79.53l-17.26,24.26h17.26v-24.26Z"/><path class="cls-1" d="M50.68,158.52c0-2.32.49-4.35,1.47-6.11.98-1.75,2.35-3.12,4.1-4.1,1.75-.98,3.77-1.47,6.05-1.47,2.44,0,4.62.53,6.54,1.6l-.27,1.07c-1.98-1.07-4.09-1.6-6.33-1.6-2.04,0-3.84.44-5.39,1.32-1.56.88-2.77,2.11-3.64,3.7-.87,1.59-1.31,3.43-1.31,5.53s.44,3.94,1.31,5.53c.87,1.59,2.08,2.82,3.64,3.7,1.56.88,3.35,1.32,5.39,1.32,1.09,0,2.23-.14,3.42-.43,1.19-.29,2.24-.67,3.15-1.14l.21,1.07c-.95.5-2.03.88-3.24,1.16-1.21.28-2.4.42-3.57.42-2.28,0-4.28-.49-6.02-1.47-1.73-.98-3.09-2.34-4.06-4.07-.97-1.73-1.46-3.74-1.46-6.02Z"/><path class="cls-1" d="M88.45,162.23h-11.26l-3.06,7.52h-1.25l9.3-22.58h1.34l9.3,22.58h-1.31l-3.06-7.52ZM82.83,148.36l-5.23,12.84h10.43l-5.2-12.84Z"/><path class="cls-1" d="M97.48,147.17h5.94c2.3,0,4.1.6,5.41,1.8,1.31,1.2,1.96,2.83,1.96,4.89s-.66,3.7-1.98,4.9c-1.32,1.21-3.13,1.81-5.42,1.81h-4.72v9.18h-1.19v-22.58ZM109.58,153.88c0-1.8-.55-3.2-1.63-4.19-1.09-.99-2.63-1.49-4.64-1.49h-4.64v11.32h4.61c2.02,0,3.58-.49,4.67-1.47,1.09-.98,1.63-2.37,1.63-4.18Z"/><path class="cls-1" d="M116.5,147.17h1.19v22.58h-1.19v-22.58Z"/><path class="cls-1" d="M130.68,148.21h-7.79v-1.04h16.73v1.04h-7.76v21.54h-1.19v-21.54Z"/><path class="cls-1" d="M155.31,162.23h-11.26l-3.06,7.52h-1.25l9.3-22.58h1.34l9.3,22.58h-1.31l-3.06-7.52ZM149.69,148.36l-5.23,12.84h10.43l-5.2-12.84Z"/><path class="cls-1" d="M164.34,147.17h1.19v21.54h11.2v1.04h-12.39v-22.58Z"/></svg>